<svg width="36" height="36" viewBox="0 0 36 36" fill="none" xmlns="http://www.w3.org/2000/svg">
<path d="M25.6465 4.40406H31.4845C31.8716 4.40406 32.2428 4.55783 32.5165 4.83154C32.7902 5.10525 32.944 5.47648 32.944 5.86356V29.2156C32.944 29.6027 32.7902 29.974 32.5165 30.2477C32.2428 30.5214 31.8716 30.6752 31.4845 30.6752H5.21341C4.82633 30.6752 4.4551 30.5214 4.18139 30.2477C3.90768 29.974 3.75391 29.6027 3.75391 29.2156V5.86356C3.75391 5.47648 3.90768 5.10525 4.18139 4.83154C4.4551 4.55783 4.82633 4.40406 5.21341 4.40406H11.0514V1.48505H13.9704V4.40406H22.7275V1.48505H25.6465V4.40406ZM30.025 16.0801H6.67292V27.7561H30.025V16.0801ZM22.7275 7.32307H13.9704V10.2421H11.0514V7.32307H6.67292V13.1611H30.025V7.32307H25.6465V10.2421H22.7275V7.32307ZM9.59193 18.9991H12.5109V21.9181H9.59193V18.9991ZM16.8895 18.9991H19.8085V21.9181H16.8895V18.9991ZM24.187 18.9991H27.106V21.9181H24.187V18.9991Z" fill="#101928"/>
</svg>
